<?xml version="1.0" encoding="utf-8"?>
<svg viewBox="2.707 0.447 441.417 148.802" width="441.417" height="148.802" xmlns="http://www.w3.org/2000/svg" xmlns:xlink="http://www.w3.org/1999/xlink" xmlns:bx="https://boxy-svg.com">
  <defs>
    <linearGradient id="gradient-2-1" gradientUnits="userSpaceOnUse" x1="77.108" y1="0.447" x2="77.108" y2="149.249" xlink:href="#gradient-2"/>
    <linearGradient id="gradient-2" bx:pinned="true">
      <stop offset="0" style="stop-color: rgb(0, 190, 44);"/>
      <stop offset="1" style="stop-color: rgb(0, 155, 54);"/>
    </linearGradient>
    <linearGradient id="gradient-2-0" gradientUnits="userSpaceOnUse" x1="312.231" y1="24.669" x2="312.231" y2="124.418" xlink:href="#gradient-2"/>
  </defs>
  <path d="M 151.509 74.847 C 151.509 84.535 142.583 92.88 129.744 96.651 C 136.154 108.398 136.565 120.607 129.716 127.456 C 122.867 134.308 110.655 133.897 98.911 127.484 C 95.14 140.325 86.795 149.249 77.107 149.249 C 67.422 149.249 59.076 140.325 55.304 127.484 C 43.558 133.897 31.349 134.308 24.497 127.458 C 17.647 120.607 18.059 108.398 24.471 96.651 C 11.631 92.88 2.707 84.535 2.707 74.847 C 2.707 65.159 11.631 56.82 24.471 53.045 C 18.059 41.301 17.647 29.089 24.497 22.24 C 31.346 15.388 43.558 15.799 55.304 22.212 C 59.076 9.371 67.422 0.447 77.107 0.447 C 86.795 0.447 95.14 9.371 98.911 22.212 C 110.658 15.799 122.867 15.388 129.716 22.237 C 136.566 29.089 136.155 41.298 129.744 53.045 C 142.583 56.82 151.509 65.159 151.509 74.847 Z M 77.107 42.398 C 59.185 42.398 44.656 56.925 44.656 74.847 C 44.656 92.771 59.185 107.298 77.107 107.298 C 95.03 107.298 109.558 92.771 109.558 74.847 C 109.558 56.925 95.03 42.398 77.107 42.398 Z" style="stroke-width: 20px; fill: url(#gradient-2-1);"/>
  <path d="M 227.264 103.768 Q 227.264 108.022 225.652 111.795 Q 224.04 115.568 221.227 118.381 Q 218.414 121.194 214.641 122.806 Q 210.868 124.418 206.614 124.418 L 200.989 124.418 Q 196.735 124.418 192.962 122.806 Q 189.189 121.194 186.376 118.381 Q 183.564 115.568 181.951 111.795 Q 180.339 108.022 180.339 103.768 L 180.339 24.669 L 188.777 24.669 L 188.777 58.696 Q 191.659 55.266 195.706 53.345 Q 199.754 51.424 204.488 51.424 L 206.614 51.424 Q 210.868 51.424 214.641 53.036 Q 218.414 54.648 221.227 57.461 Q 224.04 60.274 225.652 64.047 Q 227.264 67.82 227.264 72.074 L 227.264 103.768 Z M 218.826 71.593 Q 218.826 69.055 217.865 66.825 Q 216.905 64.596 215.258 62.949 Q 213.612 61.303 211.382 60.342 Q 209.153 59.382 206.614 59.382 L 200.989 59.382 Q 198.451 59.382 196.221 60.342 Q 193.991 61.303 192.345 62.949 Q 190.698 64.596 189.738 66.825 Q 188.777 69.055 188.777 71.593 L 188.777 104.249 Q 188.777 106.787 189.738 109.017 Q 190.698 111.246 192.345 112.893 Q 193.991 114.539 196.221 115.5 Q 198.451 116.46 200.989 116.46 L 206.614 116.46 Q 209.153 116.46 211.382 115.5 Q 213.612 114.539 215.258 112.893 Q 216.905 111.246 217.865 109.017 Q 218.826 106.787 218.826 104.249 Z M 236.66 123.046 L 236.66 24.669 L 245.099 24.669 L 245.099 123.046 Z M 300.739 103.768 Q 300.739 108.022 299.127 111.795 Q 297.515 115.568 294.702 118.381 Q 291.889 121.194 288.116 122.806 Q 284.343 124.418 280.089 124.418 L 274.464 124.418 Q 270.21 124.418 266.437 122.806 Q 262.664 121.194 259.851 118.381 Q 257.038 115.568 255.426 111.795 Q 253.814 108.022 253.814 103.768 L 253.814 72.074 Q 253.814 67.82 255.426 64.047 Q 257.038 60.274 259.851 57.461 Q 262.664 54.648 266.437 53.036 Q 270.21 51.424 274.464 51.424 L 280.089 51.424 Q 284.343 51.424 288.116 53.036 Q 291.889 54.648 294.702 57.461 Q 297.515 60.274 299.127 64.047 Q 300.739 67.82 300.739 72.074 L 300.739 103.768 Z M 292.301 71.593 Q 292.301 69.055 291.34 66.825 Q 290.38 64.596 288.733 62.949 Q 287.087 61.303 284.857 60.342 Q 282.628 59.382 280.089 59.382 L 274.464 59.382 Q 271.925 59.382 269.696 60.342 Q 267.466 61.303 265.82 62.949 Q 264.173 64.596 263.213 66.825 Q 262.252 69.055 262.252 71.593 L 262.252 104.249 Q 262.252 106.787 263.213 109.017 Q 264.173 111.246 265.82 112.893 Q 267.466 114.539 269.696 115.5 Q 271.925 116.46 274.464 116.46 L 280.089 116.46 Q 282.628 116.46 284.857 115.5 Q 287.087 114.539 288.733 112.893 Q 290.38 111.246 291.34 109.017 Q 292.301 106.787 292.301 104.249 Z M 354.256 103.768 Q 354.256 108.022 352.643 111.795 Q 351.031 115.568 348.218 118.381 Q 345.406 121.194 341.633 122.806 Q 337.859 124.418 333.606 124.418 L 327.98 124.418 Q 323.727 124.418 319.954 122.806 Q 316.181 121.194 313.368 118.381 Q 310.555 115.568 308.943 111.795 Q 307.331 108.022 307.331 103.768 L 307.331 72.074 Q 307.331 67.82 308.943 64.047 Q 310.555 60.274 313.368 57.461 Q 316.181 54.648 319.954 53.036 Q 323.727 51.424 327.98 51.424 L 333.606 51.424 Q 337.859 51.424 341.633 53.036 Q 345.406 54.648 348.218 57.461 Q 351.031 60.274 352.643 64.047 Q 354.256 67.82 354.256 72.074 L 354.256 103.768 Z M 345.817 71.593 Q 345.817 69.055 344.857 66.825 Q 343.896 64.596 342.25 62.949 Q 340.603 61.303 338.374 60.342 Q 336.144 59.382 333.606 59.382 L 327.98 59.382 Q 325.442 59.382 323.212 60.342 Q 320.983 61.303 319.336 62.949 Q 317.69 64.596 316.729 66.825 Q 315.769 69.055 315.769 71.593 L 315.769 104.249 Q 315.769 106.787 316.729 109.017 Q 317.69 111.246 319.336 112.893 Q 320.983 114.539 323.212 115.5 Q 325.442 116.46 327.98 116.46 L 333.606 116.46 Q 336.144 116.46 338.374 115.5 Q 340.603 114.539 342.25 112.893 Q 343.896 111.246 344.857 109.017 Q 345.817 106.787 345.817 104.249 Z M 435.686 123.046 L 435.686 71.593 Q 435.686 69.055 434.725 66.825 Q 433.765 64.596 432.118 62.949 Q 430.472 61.303 428.242 60.342 Q 426.013 59.382 423.474 59.382 L 419.29 59.382 Q 416.751 59.382 414.522 60.342 Q 412.292 61.303 410.611 62.949 Q 408.93 64.596 407.97 66.825 Q 407.01 69.055 407.01 71.593 L 407.01 123.046 L 398.64 123.046 L 398.64 71.593 Q 398.64 69.055 397.679 66.825 Q 396.719 64.596 395.038 62.949 Q 393.357 61.303 391.128 60.342 Q 388.898 59.382 386.36 59.382 L 382.175 59.382 Q 379.637 59.382 377.407 60.342 Q 375.177 61.303 373.531 62.949 Q 371.885 64.596 370.924 66.825 Q 369.964 69.055 369.964 71.593 L 369.964 123.046 L 361.525 123.046 L 361.525 52.796 L 364.338 52.796 L 368.935 59.931 Q 371.816 56.02 376.172 53.722 Q 380.529 51.424 385.674 51.424 L 386.36 51.424 Q 392.328 51.424 397.131 54.374 Q 401.933 57.324 404.54 62.195 Q 405.843 59.794 407.764 57.804 Q 409.685 55.815 412.018 54.408 Q 414.35 53.002 417.094 52.213 Q 419.838 51.424 422.788 51.424 L 423.474 51.424 Q 427.728 51.424 431.501 53.036 Q 435.274 54.648 438.087 57.461 Q 440.9 60.274 442.512 64.047 Q 444.124 67.82 444.124 72.074 L 444.124 123.046 Z" style="text-transform: lowercase; white-space: pre; fill: url(#gradient-2-0);"/>
</svg>